<svg id="Component_15_1" data-name="Component 15 – 1" xmlns="http://www.w3.org/2000/svg" xmlns:xlink="http://www.w3.org/1999/xlink" width="62.346" height="41.564" viewBox="0 0 62.346 41.564">
  <defs>
    <linearGradient id="linear-gradient" x1="1" y1="0.435" x2="0" y2="0.435" gradientUnits="objectBoundingBox">
      <stop offset="0" stop-color="#2469fb"/>
      <stop offset="1" stop-color="#252cc7"/>
    </linearGradient>
  </defs>
  <path id="Path_24243" data-name="Path 24243" d="M58.107,3.675a12.672,12.672,0,0,0-17.85,0L37.825,6.091,35.393,3.675a12.679,12.679,0,0,0-17.85,0,12.485,12.485,0,0,0,0,17.736l2.432,2.417,17.85,17.736,17.85-17.736,2.432-2.417a12.487,12.487,0,0,0,0-17.736Z" transform="translate(-5.853 0)" fill="url(#linear-gradient)"/>
  <g id="Group_11998" data-name="Group 11998" transform="translate(0 9.592)">
    <path id="Path_24244" data-name="Path 24244" d="M25.977,37.4a2.6,2.6,0,0,1-2.247-1.3L19.3,28.137,16.47,32.384A2.6,2.6,0,0,1,14.288,33.5H2.6a2.6,2.6,0,1,1,0-5.2H12.9l4.429-6.637a2.6,2.6,0,0,1,4.429.182L25.977,29.6l6.793-11.69a2.621,2.621,0,0,1,4.533,0l6.222,10.391,2.6-2.052a2.6,2.6,0,0,1,1.611-.546H59.748a2.6,2.6,0,1,1,0,5.2H48.643l-4.221,3.338a2.6,2.6,0,0,1-3.9-.7L35.07,24.331,28.225,36.1a2.6,2.6,0,0,1-2.247,1.3Z" transform="translate(0 -16.616)" fill="rgba(255,255,255,0.2)"/>
  </g>
</svg>
