<svg id="Iconly_Bold_Category" data-name="Iconly/Bold/Category" xmlns="http://www.w3.org/2000/svg" width="19" height="19" viewBox="0 0 19 19">
  <g id="Category" transform="translate(0 0)">
    <path id="Category-2" data-name="Category" d="M13.377,19a2.421,2.421,0,0,1-2.414-2.432V13.33A2.416,2.416,0,0,1,13.377,10.9h3.211A2.421,2.421,0,0,1,19,13.33v3.238A2.426,2.426,0,0,1,16.587,19ZM2.413,19A2.427,2.427,0,0,1,0,16.568V13.33A2.422,2.422,0,0,1,2.413,10.9H5.624A2.416,2.416,0,0,1,8.037,13.33v3.238A2.421,2.421,0,0,1,5.624,19ZM13.377,8.1a2.415,2.415,0,0,1-2.414-2.432V2.433A2.421,2.421,0,0,1,13.377,0h3.211A2.427,2.427,0,0,1,19,2.433V5.671A2.42,2.42,0,0,1,16.587,8.1ZM2.413,8.1A2.421,2.421,0,0,1,0,5.671V2.433A2.427,2.427,0,0,1,2.413,0H5.624A2.421,2.421,0,0,1,8.037,2.433V5.671A2.415,2.415,0,0,1,5.624,8.1Z" transform="translate(0 0)" fill="#b4b5b5"/>
  </g>
</svg>
