<svg id="Iconly_Bold_Close_Square" data-name="Iconly/Bold/Close Square" xmlns="http://www.w3.org/2000/svg" width="19" height="19" viewBox="0 0 19 19">
  <g id="Close_Square" data-name="Close Square">
    <path id="Close_Square-2" data-name="Close Square" d="M13.623,19H5.387C2.165,19,0,16.744,0,13.387V5.624C0,2.26,2.165,0,5.387,0h8.236C16.839,0,19,2.26,19,5.624v7.763C19,16.744,16.839,19,13.623,19ZM9.5,10.67h0l1.691,1.679a.774.774,0,0,0,.58.248.83.83,0,0,0,.589-.248.825.825,0,0,0,0-1.167L10.669,9.491,12.36,7.8a.831.831,0,0,0-.586-1.42.846.846,0,0,0-.593.243L9.5,8.312,7.809,6.623a.846.846,0,0,0-.593-.243A.832.832,0,0,0,6.631,7.8l1.69,1.692-1.69,1.682A.836.836,0,0,0,7.22,12.6a.83.83,0,0,0,.589-.248L9.5,10.67Z" fill="#b4b5b5"/>
  </g>
</svg>
