<svg xmlns="http://www.w3.org/2000/svg" width="19" height="18.58" viewBox="0 0 19 18.58">
  <g id="stethoscope-icon" transform="translate(-0.001 -0.004)">
    <path id="Path_24245" data-name="Path 24245" d="M15.531.993a3.47,3.47,0,0,1,.971,6.8,26.668,26.668,0,0,1-.148,4.863,8,8,0,0,1-1.693,4.179,5.315,5.315,0,0,1-4.227,1.747,5.212,5.212,0,0,1-5.092-2.847,10.779,10.779,0,0,1-.948-4.611,6.584,6.584,0,0,1-1.155-1.084A15.53,15.53,0,0,1,1.646,7.755.846.846,0,0,1,1.6,7l-.079-.152C.451,4.746-.248,2.459.084,1.46A1.513,1.513,0,0,1,1.165.509a5.076,5.076,0,0,1,1.7-.15A1.457,1.457,0,0,1,3.079.2,1.414,1.414,0,0,1,3.345.071,1.036,1.036,0,0,1,4.667,1.457a1.091,1.091,0,0,1-.985.665,1.233,1.233,0,0,1-.925-.569l-.014-.028a3.879,3.879,0,0,0-1.235.1c-.179.056-.289.122-.315.2-.233.7.421,2.626,1.37,4.483.039.076.077.152.118.226a.842.842,0,0,1,.433.368A13.707,13.707,0,0,0,4.519,8.931a5.645,5.645,0,0,0,.719.714.791.791,0,0,1,.087,0A4.693,4.693,0,0,0,6.022,9,12.9,12.9,0,0,0,7.508,6.927a.847.847,0,0,1,.427-.36C8.927,4.732,9.643,2.77,9.5,2c-.034-.176-.19-.291-.417-.366A3.884,3.884,0,0,0,8,1.483c-.011.023-.023.046-.036.071a1.233,1.233,0,0,1-.925.569,1.093,1.093,0,0,1-.985-.665A1.037,1.037,0,0,1,7.375.071,1.463,1.463,0,0,1,7.641.2,1.733,1.733,0,0,1,7.792.31,5.368,5.368,0,0,1,9.448.518a1.62,1.62,0,0,1,1.2,1.262c.19,1.007-.558,3.232-1.63,5.246a.85.85,0,0,1-.049.765,14.6,14.6,0,0,1-1.693,2.353,5.773,5.773,0,0,1-1.184,1.024,9.073,9.073,0,0,0,.755,3.791,3.642,3.642,0,0,0,3.584,1.925,3.7,3.7,0,0,0,2.953-1.163,6.412,6.412,0,0,0,1.288-3.309A25.393,25.393,0,0,0,14.8,7.858,3.471,3.471,0,0,1,15.531.993Zm-.717,5.716a.267.267,0,0,1,.032.011h0l.011,0,.012,0,.031.009.022.006.028.008.034.008.026.006.032.006.025,0,.039.008.014,0,.043.008.017,0a.45.45,0,0,0,.048.006h.006l.049.006.012,0,.049,0h.008c.019,0,.037,0,.056,0h0c.019,0,.039,0,.057,0h.124l.06,0h0c.02,0,.039,0,.059,0h0l.056,0h0l.057-.006h0l.056-.008h0l.056-.009h0c.019,0,.037-.006.054-.011h.006c.019,0,.036-.008.054-.012h0l.056-.014h0l.051-.014.009,0,.049-.015h0l.051-.017h0l.051-.019h0c.017-.006.036-.012.053-.02h0l.049-.02,0,0h0a2.359,2.359,0,1,0-1.693.056l.032.011.011,0Zm.717-3.536a1.29,1.29,0,1,1-1.29,1.29,1.289,1.289,0,0,1,1.29-1.29Z" transform="translate(0 0)" fill="#b4b5b5" fill-rule="evenodd"/>
  </g>
</svg>
