<svg xmlns="http://www.w3.org/2000/svg" xmlns:xlink="http://www.w3.org/1999/xlink" width="65" height="54" viewBox="0 0 65 54">
  <defs>
    <linearGradient id="linear-gradient" x1="0.5" x2="0.5" y2="1" gradientUnits="objectBoundingBox">
      <stop offset="0" stop-color="#2469fb"/>
      <stop offset="1" stop-color="#252cc7"/>
    </linearGradient>
  </defs>
  <g id="Group_12010" data-name="Group 12010" transform="translate(-1701 -440)">
    <g id="Rectangle_4164" data-name="Rectangle 4164" transform="translate(1701 440)" stroke="#707070" stroke-width="0.25" fill="url(#linear-gradient)">
      <rect width="65" height="54" rx="10" stroke="none"/>
      <rect x="0.125" y="0.125" width="64.75" height="53.75" rx="9.875" fill="none"/>
    </g>
    <g id="medical-pharmacy-store-icon" transform="translate(1717 450)">
      <path id="Path_24246" data-name="Path 24246" d="M.948,28.945H4.305V20.313h.323a6.826,6.826,0,0,0,4.033-1.3h0l.027.027h.027v.027h0l.054.054h0l.054.027h0l.054.027h0V26.8H23.743V19.529c.245-.135.46-.269.7-.407h0L24.5,19.1h.054l.027-.027h0l.054-.027a6.867,6.867,0,0,0,4.06,1.327v8.6h3.358c.514,0,.948.921.948,2.057s-.434,2.057-.948,2.057H.948c-.514,0-.948-.921-.948-2.057s.434-2.084.948-2.084ZM5.714,0H27.833a.96.96,0,0,1,.948.948.96.96,0,0,1-.948.948H5.714A.96.96,0,0,1,4.766.948.96.96,0,0,1,5.714,0ZM32.884,13.223v1.1c0,.108.027.215.027.326a3.747,3.747,0,0,1-3.98,3.465,3.746,3.746,0,0,1-3.98-3.465v-.245H24.79v.245a3.747,3.747,0,0,1-3.98,3.465,3.747,3.747,0,0,1-3.98-3.465v-.245H16.67v.245a3.747,3.747,0,0,1-3.98,3.465A3.746,3.746,0,0,1,8.71,14.65v-.245H8.6v.245a3.747,3.747,0,0,1-3.98,3.465A3.75,3.75,0,0,1,.635,14.65a.943.943,0,0,1,.027-.272V13.22L4.642,2.9H28.983l3.9,10.326ZM15.961,4.61h1.731a.591.591,0,0,1,.59.59V7.44h2.243a.591.591,0,0,1,.59.59V9.761a.591.591,0,0,1-.59.59H18.282v2.24a.591.591,0,0,1-.59.59H15.961a.591.591,0,0,1-.59-.59V10.35h-2.24a.591.591,0,0,1-.59-.59V8.029a.591.591,0,0,1,.59-.59h2.24V5.2a.593.593,0,0,1,.59-.59Z" fill="#fff" fill-rule="evenodd"/>
    </g>
  </g>
</svg>
