<svg xmlns="http://www.w3.org/2000/svg" xmlns:xlink="http://www.w3.org/1999/xlink" width="65" height="54" viewBox="0 0 65 54">
  <defs>
    <linearGradient id="linear-gradient" x1="0.5" x2="0.5" y2="1" gradientUnits="objectBoundingBox">
      <stop offset="0" stop-color="#2469fb"/>
      <stop offset="1" stop-color="#252cc7"/>
    </linearGradient>
  </defs>
  <g id="Group_12002" data-name="Group 12002" transform="translate(-1710 -200)">
    <g id="Rectangle_4164" data-name="Rectangle 4164" transform="translate(1710 200)" stroke="#707070" stroke-width="0.25" fill="url(#linear-gradient)">
      <rect width="65" height="54" rx="10" stroke="none"/>
      <rect x="0.125" y="0.125" width="64.75" height="53.75" rx="9.875" fill="none"/>
    </g>
    <g id="stethoscope-icon" transform="translate(1725.999 210.996)">
      <path id="Path_24245" data-name="Path 24245" d="M26.974,1.722a6.027,6.027,0,0,1,1.687,11.814,46.319,46.319,0,0,1-.258,8.446,13.9,13.9,0,0,1-2.941,7.259,9.232,9.232,0,0,1-7.342,3.035c-4.7,0-7.353-2.046-8.844-4.944A18.721,18.721,0,0,1,7.63,19.323,11.436,11.436,0,0,1,5.624,17.44a26.973,26.973,0,0,1-2.766-3.975,1.47,1.47,0,0,1-.078-1.319l-.137-.263C.782,8.24-.432,4.268.146,2.533A2.628,2.628,0,0,1,2.023.881,8.817,8.817,0,0,1,4.982.621,2.53,2.53,0,0,1,5.348.349,2.455,2.455,0,0,1,5.81.121a1.8,1.8,0,0,1,2.3,2.406A1.9,1.9,0,0,1,6.395,3.682a2.141,2.141,0,0,1-1.606-.988l-.024-.048a6.737,6.737,0,0,0-2.146.18c-.312.1-.5.212-.548.344-.406,1.217.73,4.56,2.379,7.785.067.132.134.263.2.392a1.462,1.462,0,0,1,.752.639,23.807,23.807,0,0,0,2.441,3.523A9.8,9.8,0,0,0,9.1,16.75a1.374,1.374,0,0,1,.15.008,8.151,8.151,0,0,0,1.211-1.125,22.412,22.412,0,0,0,2.581-3.6,1.471,1.471,0,0,1,.741-.626c1.724-3.188,2.968-6.6,2.712-7.939-.059-.306-.33-.5-.725-.636a6.747,6.747,0,0,0-1.877-.255c-.019.04-.04.081-.062.124a2.141,2.141,0,0,1-1.606.988A1.9,1.9,0,0,1,10.512,2.53a1.8,1.8,0,0,1,2.3-2.409,2.541,2.541,0,0,1,.462.228,3.01,3.01,0,0,1,.263.185A9.323,9.323,0,0,1,16.409.9a2.813,2.813,0,0,1,2.079,2.191c.33,1.748-.969,5.613-2.831,9.112a1.477,1.477,0,0,1-.086,1.329,25.365,25.365,0,0,1-2.941,4.087A10.026,10.026,0,0,1,10.574,19.4a15.759,15.759,0,0,0,1.311,6.585c1.007,1.958,2.865,3.344,6.225,3.344a6.43,6.43,0,0,0,5.129-2.02,11.136,11.136,0,0,0,2.237-5.747,44.1,44.1,0,0,0,.234-7.912A6.029,6.029,0,0,1,26.974,1.722ZM25.728,11.65a.463.463,0,0,1,.056.019h0l.019.005.021.005.054.016.038.011.048.013a.6.6,0,0,0,.059.013l.046.011.056.011.043.008.067.013.024.005c.024.005.048.008.075.013l.03.005a.781.781,0,0,0,.083.011h.011c.03,0,.056.008.086.011l.021,0,.086.008h.013c.032,0,.064.005.1.005h0c.032,0,.067,0,.1,0h.215l.1,0h0c.035,0,.067-.005.1-.005h0l.1-.008H27.4l.1-.011h0l.1-.013H27.6l.1-.016h0c.032-.005.064-.011.094-.019H27.8c.032-.005.062-.013.094-.021H27.9l.1-.024h0l.089-.024.016-.005c.03-.008.056-.016.086-.027H28.2l.089-.03h.008l.089-.032h.005c.03-.011.062-.021.091-.035h0c.03-.011.056-.024.086-.035l0,0h0a4.1,4.1,0,1,0-2.941.1l.056.019.019.005Zm1.246-6.142a2.24,2.24,0,1,1-2.24,2.24,2.238,2.238,0,0,1,2.24-2.24Z" transform="translate(0 0)" fill="#fff" fill-rule="evenodd"/>
    </g>
  </g>
</svg>
