<svg id="Iconly_Bold_Location" data-name="Iconly/Bold/Location" xmlns="http://www.w3.org/2000/svg" width="13" height="15" viewBox="0 0 13 15">
  <g id="Location" transform="translate(0 0)">
    <path id="Location-2" data-name="Location" d="M6.5,15a1.052,1.052,0,0,1-.561-.186,16.331,16.331,0,0,1-4.237-3.856A7.7,7.7,0,0,1,0,6.238,6.07,6.07,0,0,1,1.914,1.825,6.59,6.59,0,0,1,6.495,0,6.383,6.383,0,0,1,13,6.238a7.7,7.7,0,0,1-1.705,4.72,16.641,16.641,0,0,1-4.237,3.856A1.022,1.022,0,0,1,6.5,15ZM6.495,4.333a2.123,2.123,0,0,0-2.14,2.1A2.015,2.015,0,0,0,4.983,7.9a2.171,2.171,0,0,0,1.512.6A2.111,2.111,0,0,0,8.646,6.433a2.06,2.06,0,0,0-.633-1.48A2.159,2.159,0,0,0,6.495,4.333Z" transform="translate(0 0)" fill="#2469fb"/>
  </g>
</svg>
