<svg id="Component_14_1" data-name="Component 14 – 1" xmlns="http://www.w3.org/2000/svg" xmlns:xlink="http://www.w3.org/1999/xlink" width="81.743" height="78.354" viewBox="0 0 81.743 78.354">
  <defs>
    <linearGradient id="linear-gradient" x1="1" y1="0.435" x2="0" y2="0.435" gradientUnits="objectBoundingBox">
      <stop offset="0" stop-color="#2469fb"/>
      <stop offset="1" stop-color="#252cc7"/>
    </linearGradient>
    <linearGradient id="linear-gradient-2" x1="1" y1="0.912" x2="0.013" y2="0.894" xlink:href="#linear-gradient"/>
  </defs>
  <g id="Group_11999" data-name="Group 11999" transform="translate(9)">
    <path id="Path_24243" data-name="Path 24243" d="M58.107,3.675a12.672,12.672,0,0,0-17.85,0L37.825,6.091,35.393,3.675a12.679,12.679,0,0,0-17.85,0,12.485,12.485,0,0,0,0,17.736l2.432,2.417,17.85,17.736,17.85-17.736,2.432-2.417a12.487,12.487,0,0,0,0-17.736Z" transform="translate(-5.853 0)" fill="url(#linear-gradient)"/>
    <g id="Group_11998" data-name="Group 11998" transform="translate(0 9.592)">
      <path id="Path_24244" data-name="Path 24244" d="M25.977,37.4a2.6,2.6,0,0,1-2.247-1.3L19.3,28.137,16.47,32.384A2.6,2.6,0,0,1,14.288,33.5H2.6a2.6,2.6,0,1,1,0-5.2H12.9l4.429-6.637a2.6,2.6,0,0,1,4.429.182L25.977,29.6l6.793-11.69a2.621,2.621,0,0,1,4.533,0l6.222,10.391,2.6-2.052a2.6,2.6,0,0,1,1.611-.546H59.748a2.6,2.6,0,1,1,0,5.2H48.643l-4.221,3.338a2.6,2.6,0,0,1-3.9-.7L35.07,24.331,28.225,36.1a2.6,2.6,0,0,1-2.247,1.3Z" transform="translate(0 -16.616)" fill="rgba(255,255,255,0.2)"/>
    </g>
  </g>
  <path id="Path_24240" data-name="Path 24240" d="M27.143,122.506a4.445,4.445,0,0,1-1.838-.386,4.841,4.841,0,0,1-1.515-1.081,5.062,5.062,0,0,1-1.384-3.532,5.127,5.127,0,0,1,.365-1.942,5.076,5.076,0,0,1,1.019-1.59A4.749,4.749,0,0,1,25.3,112.9a4.523,4.523,0,0,1,3.993.151,4.825,4.825,0,0,1,1.632,1.439l-1.845.991a2.714,2.714,0,0,0-.861-.661,2.411,2.411,0,0,0-1.081-.248,2.437,2.437,0,0,0-1.04.227,2.724,2.724,0,0,0-.854.633,2.951,2.951,0,0,0-.571.929,3.246,3.246,0,0,0,0,2.279,3.037,3.037,0,0,0,.571.936,2.874,2.874,0,0,0,.854.633,2.437,2.437,0,0,0,1.04.227,2.411,2.411,0,0,0,1.081-.248,2.755,2.755,0,0,0,.861-.675l1.845,1.005a4.925,4.925,0,0,1-1.632,1.439A4.383,4.383,0,0,1,27.143,122.506Zm9.626-7.064h2.065v6.885H36.762l-.1-.62a1.962,1.962,0,0,1-.647.578,1.787,1.787,0,0,1-.9.22,3.631,3.631,0,0,1-1.446-.289,3.765,3.765,0,0,1-1.177-.8,3.849,3.849,0,0,1-.8-1.184,3.708,3.708,0,0,1-.282-1.446,3.524,3.524,0,0,1,.269-1.377,3.466,3.466,0,0,1,.75-1.122,3.608,3.608,0,0,1,1.122-.764,3.43,3.43,0,0,1,1.37-.275A2.313,2.313,0,0,1,36,115.5a3.42,3.42,0,0,1,.868.606Zm-1.707,5.081a1.434,1.434,0,0,0,.778-.22,1.608,1.608,0,0,0,.558-.592,1.756,1.756,0,0,0,0-1.652,1.608,1.608,0,0,0-.558-.592,1.484,1.484,0,0,0-1.556,0,1.628,1.628,0,0,0-.551.592,1.718,1.718,0,0,0-.2.826,1.672,1.672,0,0,0,.207.826,1.628,1.628,0,0,0,.551.592A1.422,1.422,0,0,0,35.062,120.524Zm5.155,1.8V112h2.065v10.327Zm10.176-4.4v4.4H48.327v-3.821a1.108,1.108,0,0,0-.158-.585,1.152,1.152,0,0,0-.42-.42,1.108,1.108,0,0,0-.585-.158A1.149,1.149,0,0,0,46,118.506v3.821H43.935l-.007-6.885h2.065l.007.434a2.584,2.584,0,0,1,.785-.461,2.625,2.625,0,0,1,.929-.165,2.565,2.565,0,0,1,1.349.365,2.694,2.694,0,0,1,.964.964A2.565,2.565,0,0,1,50.393,117.928Zm4.27,4.578a3.217,3.217,0,0,1-1.735-.489,3.758,3.758,0,0,1-1.439-4.544,3.688,3.688,0,0,1,.737-1.157,3.455,3.455,0,0,1,1.1-.785,3.214,3.214,0,0,1,1.336-.282,3.144,3.144,0,0,1,1.508.365,3.4,3.4,0,0,1,1.157.978A3.779,3.779,0,0,1,58,117.976a3.568,3.568,0,0,1,.041,1.59H53.451a1.752,1.752,0,0,0,.255.441,1.264,1.264,0,0,0,.4.31,1.329,1.329,0,0,0,.558.124,1.1,1.1,0,0,0,.558-.131,1.473,1.473,0,0,0,.454-.372l2.107.489a3.68,3.68,0,0,1-1.253,1.5A3.2,3.2,0,0,1,54.663,122.506Zm-1.287-4.455h2.582a1.533,1.533,0,0,0-.289-.523,1.429,1.429,0,0,0-.454-.358,1.188,1.188,0,0,0-.551-.131,1.216,1.216,0,0,0-.551.131,1.455,1.455,0,0,0-.448.358A1.7,1.7,0,0,0,53.375,118.052Zm12.078-.124v4.4H63.388v-3.821a1.108,1.108,0,0,0-.158-.585,1.152,1.152,0,0,0-.42-.42,1.108,1.108,0,0,0-.585-.158,1.149,1.149,0,0,0-1.164,1.164v3.821H59L58.989,112h2.065l.007,3.876a2.584,2.584,0,0,1,.785-.461,2.625,2.625,0,0,1,.929-.165,2.565,2.565,0,0,1,1.349.365,2.694,2.694,0,0,1,.964.964A2.565,2.565,0,0,1,65.454,117.928ZM3.271,138.966v-9.639H9.412v2.065H5.336v1.377h3.14v2.065H5.336V136.9H9.412v2.065Zm7.651-5.164h4.406v2.065H10.922Zm11.545-4.475h2.065v9.639H22.467v-4.131H19.052v4.131H16.987v-9.639h2.065v3.442h3.415Zm6.6,9.818a3.217,3.217,0,0,1-1.735-.489,3.758,3.758,0,0,1-1.439-4.544,3.688,3.688,0,0,1,.737-1.157,3.455,3.455,0,0,1,1.1-.785,3.214,3.214,0,0,1,1.336-.282,3.144,3.144,0,0,1,1.508.365,3.4,3.4,0,0,1,1.157.978,3.779,3.779,0,0,1,.675,1.384,3.568,3.568,0,0,1,.041,1.59H27.854a1.752,1.752,0,0,0,.255.441,1.264,1.264,0,0,0,.4.31,1.329,1.329,0,0,0,.558.124,1.1,1.1,0,0,0,.558-.131,1.473,1.473,0,0,0,.454-.372l2.107.489a3.68,3.68,0,0,1-1.253,1.5A3.2,3.2,0,0,1,29.066,139.145Zm-1.287-4.455H30.36a1.533,1.533,0,0,0-.289-.523,1.429,1.429,0,0,0-.454-.358,1.188,1.188,0,0,0-.551-.131,1.216,1.216,0,0,0-.551.131,1.455,1.455,0,0,0-.448.358A1.7,1.7,0,0,0,27.778,134.69Zm10.772-2.609h2.065v6.885H38.544l-.1-.62a1.961,1.961,0,0,1-.647.578,1.787,1.787,0,0,1-.9.22,3.631,3.631,0,0,1-1.446-.289,3.765,3.765,0,0,1-1.177-.8,3.849,3.849,0,0,1-.8-1.184,3.708,3.708,0,0,1-.282-1.446,3.524,3.524,0,0,1,.269-1.377,3.466,3.466,0,0,1,.75-1.122,3.608,3.608,0,0,1,1.122-.764,3.431,3.431,0,0,1,1.37-.275,2.314,2.314,0,0,1,1.074.248,3.42,3.42,0,0,1,.867.606Zm-1.707,5.081a1.434,1.434,0,0,0,.778-.22,1.608,1.608,0,0,0,.558-.592,1.756,1.756,0,0,0,0-1.652,1.608,1.608,0,0,0-.558-.592,1.484,1.484,0,0,0-1.556,0,1.628,1.628,0,0,0-.551.592,1.718,1.718,0,0,0-.2.826,1.672,1.672,0,0,0,.207.826,1.628,1.628,0,0,0,.551.592A1.422,1.422,0,0,0,36.843,137.162Zm5.155,1.8V128.639h2.065v10.327Zm7.5-4.819h-1.17v4.819H46.26v-4.819h-.9v-2.065h.9v-2.162h2.065v2.162H49.5Zm7.707.42v4.4H55.138v-3.821a1.108,1.108,0,0,0-.158-.585,1.152,1.152,0,0,0-.42-.42,1.108,1.108,0,0,0-.585-.158,1.149,1.149,0,0,0-1.164,1.164v3.821H50.746l-.007-10.327H52.8l.007,3.876a2.584,2.584,0,0,1,.785-.461,2.625,2.625,0,0,1,.929-.165,2.565,2.565,0,0,1,1.349.365,2.694,2.694,0,0,1,.964.964A2.565,2.565,0,0,1,57.2,134.566Zm5.165,2.141,1.859,1.005a3.611,3.611,0,0,1-1.191,1.04,3.316,3.316,0,0,1-3.3-.1,3.745,3.745,0,0,1-.7-5.7,3.455,3.455,0,0,1,1.1-.785,3.3,3.3,0,0,1,2.9.11,3.549,3.549,0,0,1,1.191,1.053l-1.859,1.005a1.278,1.278,0,0,0-.42-.282,1.135,1.135,0,0,0-.475-.1,1.182,1.182,0,0,0-.7.22,1.6,1.6,0,0,0-.5.578,1.736,1.736,0,0,0,0,1.535,1.618,1.618,0,0,0,.5.571,1.182,1.182,0,0,0,.7.22,1.2,1.2,0,0,0,.475-.1A1.512,1.512,0,0,0,62.369,136.708Zm7.756-4.627H72.19v6.885H70.118l-.1-.62a1.962,1.962,0,0,1-.647.578,1.787,1.787,0,0,1-.9.22,3.631,3.631,0,0,1-1.446-.289,3.765,3.765,0,0,1-1.177-.8,3.849,3.849,0,0,1-.8-1.184,3.708,3.708,0,0,1-.282-1.446,3.524,3.524,0,0,1,.269-1.377,3.467,3.467,0,0,1,.75-1.122,3.608,3.608,0,0,1,1.122-.764,3.431,3.431,0,0,1,1.37-.275,2.314,2.314,0,0,1,1.074.248,3.42,3.42,0,0,1,.868.606Zm-1.707,5.081a1.434,1.434,0,0,0,.778-.22,1.608,1.608,0,0,0,.558-.592,1.756,1.756,0,0,0,0-1.652,1.608,1.608,0,0,0-.558-.592,1.484,1.484,0,0,0-1.556,0,1.628,1.628,0,0,0-.551.592,1.718,1.718,0,0,0-.2.826,1.672,1.672,0,0,0,.207.826,1.628,1.628,0,0,0,.551.592A1.422,1.422,0,0,0,68.417,137.162Zm5.162,1.8-.007-6.885h2.065l.007.434a2.584,2.584,0,0,1,.785-.461,2.625,2.625,0,0,1,.929-.165,2.748,2.748,0,0,1,.757.11l-.812,2.093a1.18,1.18,0,0,0-.5-.11,1.149,1.149,0,0,0-1.164,1.164v3.821Zm7.985.179a3.217,3.217,0,0,1-1.735-.489,3.758,3.758,0,0,1-1.439-4.544,3.688,3.688,0,0,1,.737-1.157,3.455,3.455,0,0,1,1.1-.785,3.214,3.214,0,0,1,1.336-.282,3.144,3.144,0,0,1,1.508.365,3.4,3.4,0,0,1,1.157.978,3.779,3.779,0,0,1,.675,1.384,3.568,3.568,0,0,1,.041,1.59H80.352a1.751,1.751,0,0,0,.255.441,1.264,1.264,0,0,0,.4.31,1.329,1.329,0,0,0,.558.124,1.1,1.1,0,0,0,.558-.131,1.473,1.473,0,0,0,.454-.372l2.107.489a3.68,3.68,0,0,1-1.253,1.5A3.2,3.2,0,0,1,81.564,139.145Zm-1.287-4.455h2.582a1.533,1.533,0,0,0-.289-.523,1.429,1.429,0,0,0-.454-.358,1.188,1.188,0,0,0-.551-.131,1.216,1.216,0,0,0-.551.131,1.455,1.455,0,0,0-.448.358A1.7,1.7,0,0,0,80.276,134.69Z" transform="translate(-3.271 -60.791)" fill="url(#linear-gradient-2)"/>
</svg>
