<svg id="medical-pharmacy-store-icon" xmlns="http://www.w3.org/2000/svg" width="19" height="19.05" viewBox="0 0 19 19.05">
  <path id="Path_24246" data-name="Path 24246" d="M.546,16.665H2.479V11.7h.186a3.93,3.93,0,0,0,2.322-.749h0L5,10.962h.016v.016h0l.031.031h0l.031.016h0l.031.016h0v4.392H13.67V11.244c.141-.078.265-.155.4-.234h0l.031-.016h.031l.016-.016h0l.031-.016a3.954,3.954,0,0,0,2.338.764v4.953h1.933c.3,0,.546.53.546,1.184s-.25,1.184-.546,1.184H.546c-.3,0-.546-.53-.546-1.184s.25-1.2.546-1.2ZM3.29,0H16.025a.553.553,0,0,1,.546.546.553.553,0,0,1-.546.546H3.29A.553.553,0,0,1,2.744.546.553.553,0,0,1,3.29,0ZM18.933,7.613v.634c0,.062.016.124.016.188a2.158,2.158,0,0,1-2.291,2,2.157,2.157,0,0,1-2.291-2V8.294h-.093v.141a2.158,2.158,0,0,1-2.291,2,2.158,2.158,0,0,1-2.291-2V8.294H9.6v.141a2.158,2.158,0,0,1-2.291,2,2.157,2.157,0,0,1-2.291-2V8.294H4.953v.141a2.158,2.158,0,0,1-2.291,2,2.159,2.159,0,0,1-2.3-2,.543.543,0,0,1,.016-.157V7.612L2.673,1.668H16.687l2.246,5.945ZM9.19,2.654h1a.34.34,0,0,1,.34.34v1.29h1.291a.34.34,0,0,1,.34.34v1a.34.34,0,0,1-.34.34H10.526v1.29a.34.34,0,0,1-.34.34h-1a.34.34,0,0,1-.34-.34V5.959H7.561a.34.34,0,0,1-.34-.34v-1a.34.34,0,0,1,.34-.34H8.85V2.994a.341.341,0,0,1,.34-.34Z" fill="#b4b5b5" fill-rule="evenodd"/>
</svg>
