<svg xmlns="http://www.w3.org/2000/svg" width="16" height="16" viewBox="0 0 16 16">
  <g id="Search" transform="translate(0 0)">
    <path id="Search-2" data-name="Search" d="M14.192,15.687l-1.7-1.944a.867.867,0,0,1,0-1.219.789.789,0,0,1,1.115,0l2.043,1.65h.036a1.079,1.079,0,0,1,0,1.513,1.052,1.052,0,0,1-1.5,0ZM0,6.936A6.9,6.9,0,0,1,6.862,0a6.824,6.824,0,0,1,4.852,2.032,6.973,6.973,0,0,1,2.009,4.9,6.9,6.9,0,0,1-6.862,6.937A6.9,6.9,0,0,1,0,6.936Z" transform="translate(0 0)" fill="#b4b5b5"/>
  </g>
</svg>
